<svg width="25" height="25" viewBox="0 0 25 25" fill="none" xmlns="http://www.w3.org/2000/svg">
<g clip-path="url(#clip0_1_71)">
<path d="M7.8125 13.5417C6.8854 13.5417 5.97912 13.2668 5.20826 12.7517C4.43741 12.2366 3.8366 11.5045 3.48181 10.648C3.12703 9.79147 3.0342 8.84897 3.21507 7.93968C3.39594 7.0304 3.84238 6.19516 4.49794 5.53961C5.1535 4.88405 5.98873 4.43761 6.89801 4.25674C7.8073 4.07587 8.7498 4.1687 9.60633 4.52348C10.4629 4.87827 11.1949 5.47908 11.71 6.24993C12.2251 7.02079 12.5 7.92707 12.5 8.85417C12.4986 10.0969 12.0043 11.2884 11.1255 12.1672C10.2468 13.046 9.05528 13.5403 7.8125 13.5417ZM7.8125 6.25C7.29744 6.25 6.79396 6.40273 6.3657 6.68888C5.93745 6.97503 5.60367 7.38175 5.40656 7.8576C5.20946 8.33345 5.15789 8.85706 5.25837 9.36222C5.35885 9.86738 5.60688 10.3314 5.97108 10.6956C6.33528 11.0598 6.79929 11.3078 7.30445 11.4083C7.80961 11.5088 8.33322 11.4572 8.80907 11.2601C9.28492 11.063 9.69164 10.7292 9.97779 10.301C10.2639 9.87271 10.4167 9.36922 10.4167 8.85417C10.4167 8.1635 10.1423 7.50112 9.65392 7.01274C9.16555 6.52437 8.50317 6.25 7.8125 6.25ZM15.625 23.9583V23.4375C15.625 21.3655 14.8019 19.3784 13.3368 17.9132C11.8716 16.4481 9.8845 15.625 7.8125 15.625C5.7405 15.625 3.75336 16.4481 2.28823 17.9132C0.8231 19.3784 0 21.3655 0 23.4375L0 23.9583C0 24.2346 0.109747 24.4996 0.305097 24.6949C0.500448 24.8903 0.765399 25 1.04167 25C1.31793 25 1.58289 24.8903 1.77824 24.6949C1.97359 24.4996 2.08333 24.2346 2.08333 23.9583V23.4375C2.08333 21.918 2.68694 20.4608 3.76137 19.3864C4.83579 18.3119 6.29303 17.7083 7.8125 17.7083C9.33197 17.7083 10.7892 18.3119 11.8636 19.3864C12.9381 20.4608 13.5417 21.918 13.5417 23.4375V23.9583C13.5417 24.2346 13.6514 24.4996 13.8468 24.6949C14.0421 24.8903 14.3071 25 14.5833 25C14.8596 25 15.1246 24.8903 15.3199 24.6949C15.5153 24.4996 15.625 24.2346 15.625 23.9583ZM25 18.75C25 17.3424 24.5925 15.9649 23.8268 14.7837C23.0611 13.6026 21.9698 12.6683 20.6848 12.0937C19.3998 11.5191 17.976 11.3287 16.5852 11.5456C15.1943 11.7624 13.896 12.3771 12.8469 13.3156C12.7435 13.4065 12.6592 13.5169 12.5987 13.6405C12.5383 13.7641 12.5029 13.8985 12.4947 14.0358C12.4864 14.1732 12.5055 14.3108 12.5508 14.4408C12.596 14.5707 12.6666 14.6904 12.7584 14.7929C12.8502 14.8955 12.9614 14.9788 13.0855 15.0381C13.2097 15.0974 13.3444 15.1315 13.4818 15.1384C13.6193 15.1454 13.7567 15.1251 13.8862 15.0786C14.0158 15.0321 14.1348 14.9604 14.2365 14.8677C14.9859 14.1975 15.9133 13.7586 16.9067 13.6038C17.9001 13.4491 18.917 13.5851 19.8348 13.9956C20.7526 14.4061 21.5319 15.0734 22.0788 15.9171C22.6256 16.7607 22.9167 17.7446 22.9167 18.75C22.9167 19.0263 23.0264 19.2912 23.2218 19.4866C23.4171 19.6819 23.6821 19.7917 23.9583 19.7917C24.2346 19.7917 24.4996 19.6819 24.6949 19.4866C24.8903 19.2912 25 19.0263 25 18.75ZM18.2292 9.375C17.3021 9.375 16.3958 9.10008 15.6249 8.58502C14.8541 8.06995 14.2533 7.33786 13.8985 6.48133C13.5437 5.6248 13.4509 4.6823 13.6317 3.77302C13.8126 2.86373 14.259 2.0285 14.9146 1.37294C15.5702 0.71738 16.4054 0.270939 17.3147 0.0900711C18.224 -0.0907971 19.1665 0.00203103 20.023 0.356817C20.8795 0.711603 21.6116 1.31241 22.1267 2.08327C22.6417 2.85412 22.9167 3.7604 22.9167 4.6875C22.9153 5.93028 22.421 7.12176 21.5422 8.00054C20.6634 8.87932 19.4719 9.37362 18.2292 9.375ZM18.2292 2.08334C17.7141 2.08334 17.2106 2.23607 16.7824 2.52222C16.3541 2.80837 16.0203 3.21508 15.8232 3.69093C15.6261 4.16678 15.5746 4.69039 15.675 5.19555C15.7755 5.70071 16.0235 6.16473 16.3877 6.52893C16.7519 6.89313 17.216 7.14115 17.7211 7.24163C18.2263 7.34211 18.7499 7.29054 19.2257 7.09344C19.7016 6.89634 20.1083 6.56255 20.3945 6.1343C20.6806 5.70605 20.8333 5.20256 20.8333 4.6875C20.8333 3.99683 20.559 3.33445 20.0706 2.84608C19.5822 2.3577 18.9198 2.08334 18.2292 2.08334Z" fill="#1C1C1C"/>
</g>
<defs>
<clipPath id="clip0_1_71">
<rect width="25" height="25" fill="white"/>
</clipPath>
</defs>
</svg>
