<svg width="2560" height="258" viewBox="0 0 2560 258" fill="none" xmlns="http://www.w3.org/2000/svg">
<path d="M95.7065 5.08666C117.665 5.08666 136.671 8.74633 152.727 16.0657C169.018 23.385 181.532 33.7738 190.268 47.2319C199.004 60.6901 203.372 76.6274 203.372 95.0438C203.372 113.224 199.004 129.161 190.268 142.856C181.532 156.314 169.018 166.703 152.727 174.022C136.671 181.105 117.665 184.647 95.7065 184.647H45.7697V253H-11.6046V5.08666H95.7065ZM92.519 137.897C109.755 137.897 122.859 134.238 131.831 126.918C140.803 119.363 145.289 108.738 145.289 95.0438C145.289 81.1134 140.803 70.4886 131.831 63.1692C122.859 55.6138 109.755 51.836 92.519 51.836H45.7697V137.897H92.519ZM373.901 199.876H258.798L236.84 253H178.049L288.548 5.08666H345.214L456.066 253H395.859L373.901 199.876ZM355.838 156.314L316.526 61.3984L277.214 156.314H355.838ZM687.909 5.08666V253H640.806L517.203 102.481V253H460.538V5.08666H507.995L631.244 155.605V5.08666H687.909ZM776.669 51.836H697.336V5.08666H913.375V51.836H834.043V253H776.669V51.836ZM1114.95 206.959V253H922.995V5.08666H1110.35V51.1277H980.016V104.96H1095.12V149.585H980.016V206.959H1114.95ZM1297.31 253L1249.5 183.938H1246.66H1196.73V253H1139.35V5.08666H1246.66C1268.62 5.08666 1287.63 8.74633 1303.68 16.0657C1319.98 23.385 1332.49 33.7738 1341.22 47.2319C1349.96 60.6901 1354.33 76.6274 1354.33 95.0438C1354.33 113.46 1349.84 129.397 1340.87 142.856C1332.13 156.078 1319.62 166.23 1303.33 173.314L1358.93 253H1297.31ZM1296.25 95.0438C1296.25 81.1134 1291.76 70.4886 1282.79 63.1692C1273.82 55.6138 1260.71 51.836 1243.48 51.836H1196.73V138.252H1243.48C1260.71 138.252 1273.82 134.474 1282.79 126.918C1291.76 119.363 1296.25 108.738 1296.25 95.0438ZM1625.1 125.148H1677.52V225.73C1664.06 235.882 1648.48 243.674 1630.77 249.104C1613.06 254.535 1595.24 257.25 1577.29 257.25C1551.56 257.25 1528.42 251.819 1507.88 240.958C1487.34 229.861 1471.16 214.632 1459.36 195.272C1447.79 175.675 1442 153.599 1442 129.043C1442 104.488 1447.79 82.5301 1459.36 63.1692C1471.16 43.5723 1487.45 28.3433 1508.23 17.4823C1529.01 6.38526 1552.38 0.836726 1578.36 0.836726C1600.08 0.836726 1619.79 4.49639 1637.5 11.8157C1655.21 19.1351 1670.08 29.7599 1682.12 43.6903L1645.29 77.6898C1627.58 59.0373 1606.22 49.7111 1581.19 49.7111C1565.37 49.7111 1551.32 53.0166 1539.04 59.6276C1526.77 66.2386 1517.2 75.5649 1510.36 87.6064C1503.51 99.6479 1500.09 113.46 1500.09 129.043C1500.09 144.39 1503.51 158.085 1510.36 170.126C1517.2 182.168 1526.65 191.612 1538.69 198.459C1550.97 205.07 1564.9 208.376 1580.48 208.376C1597.01 208.376 1611.88 204.834 1625.1 197.751V125.148ZM1709.57 5.08666H1766.94V206.251H1891.25V253H1709.57V5.08666ZM2050.53 98.2312C2085.47 98.2312 2111.2 105.196 2127.73 119.127C2144.5 133.057 2152.88 151.71 2152.88 175.084C2152.88 190.195 2149.1 204.008 2141.54 216.521C2133.99 228.799 2122.42 238.715 2106.84 246.271C2091.49 253.59 2072.48 257.25 2049.82 257.25C2032.34 257.25 2015.11 255.007 1998.11 250.521C1981.35 245.799 1967.06 239.188 1955.26 230.688L1977.92 186.772C1987.37 193.855 1998.23 199.403 2010.5 203.417C2022.78 207.195 2035.41 209.084 2048.4 209.084C2062.8 209.084 2074.14 206.251 2082.4 200.584C2090.66 194.917 2094.8 187.008 2094.8 176.855C2094.8 166.23 2090.43 158.203 2081.69 152.772C2073.19 147.342 2058.32 144.626 2037.07 144.626H1973.67L1986.42 5.08666H2137.65V51.1277H2034.23L2030.34 98.2312H2050.53ZM2261.15 257.25C2240.61 257.25 2222.31 252.174 2206.26 242.021C2190.2 231.868 2177.57 217.23 2168.36 198.105C2159.39 178.744 2154.91 155.724 2154.91 129.043C2154.91 102.363 2159.39 79.4607 2168.36 60.3359C2177.57 40.9751 2190.2 26.2183 2206.26 16.0657C2222.31 5.91304 2240.61 0.836726 2261.15 0.836726C2281.7 0.836726 2299.99 5.91304 2316.05 16.0657C2332.11 26.2183 2344.62 40.9751 2353.59 60.3359C2362.8 79.4607 2367.4 102.363 2367.4 129.043C2367.4 155.724 2362.8 178.744 2353.59 198.105C2344.62 217.23 2332.11 231.868 2316.05 242.021C2299.99 252.174 2281.7 257.25 2261.15 257.25ZM2261.15 208.73C2276.27 208.73 2288.07 202.237 2296.57 189.251C2305.31 176.265 2309.67 156.196 2309.67 129.043C2309.67 101.891 2305.31 81.8217 2296.57 68.8358C2288.07 55.8499 2276.27 49.3569 2261.15 49.3569C2246.28 49.3569 2234.47 55.8499 2225.74 68.8358C2217.24 81.8217 2212.99 101.891 2212.99 129.043C2212.99 156.196 2217.24 176.265 2225.74 189.251C2234.47 202.237 2246.28 208.73 2261.15 208.73ZM2480.28 257.25C2459.74 257.25 2441.44 252.174 2425.38 242.021C2409.33 231.868 2396.7 217.23 2387.49 198.105C2378.52 178.744 2374.03 155.724 2374.03 129.043C2374.03 102.363 2378.52 79.4607 2387.49 60.3359C2396.7 40.9751 2409.33 26.2183 2425.38 16.0657C2441.44 5.91304 2459.74 0.836726 2480.28 0.836726C2500.82 0.836726 2519.12 5.91304 2535.17 16.0657C2551.23 26.2183 2563.74 40.9751 2572.71 60.3359C2581.92 79.4607 2586.53 102.363 2586.53 129.043C2586.53 155.724 2581.92 178.744 2572.71 198.105C2563.74 217.23 2551.23 231.868 2535.17 242.021C2519.12 252.174 2500.82 257.25 2480.28 257.25ZM2480.28 208.73C2495.39 208.73 2507.19 202.237 2515.69 189.251C2524.43 176.265 2528.8 156.196 2528.8 129.043C2528.8 101.891 2524.43 81.8217 2515.69 68.8358C2507.19 55.8499 2495.39 49.3569 2480.28 49.3569C2465.4 49.3569 2453.6 55.8499 2444.86 68.8358C2436.36 81.8217 2432.11 101.891 2432.11 129.043C2432.11 156.196 2436.36 176.265 2444.86 189.251C2453.6 202.237 2465.4 208.73 2480.28 208.73Z" fill="#EEEEEE"/>
</svg>
