<svg width="66" height="66" viewBox="0 0 66 66" fill="none" xmlns="http://www.w3.org/2000/svg">
<g clip-path="url(#clip0_29_170)">
<path d="M56.43 9.48475C50.16 3.42375 41.91 0 33.1237 0C7.90625 0 -7.92825 27.3212 4.664 49.0545L0 66L17.4212 61.457C25.0112 65.5573 31.229 65.1943 33.1402 65.4362C62.381 65.4362 76.9367 30.0602 56.3887 9.592L56.43 9.48475Z" fill="#ECEFF1"/>
<path d="M33.1842 59.8151L33.1677 59.8124H33.1237C24.3732 59.8124 18.7825 55.6681 18.2325 55.4288L7.91998 58.1101L10.6837 48.0863L10.0265 47.0551C7.30398 42.7211 5.85748 37.7299 5.85748 32.5901C5.85748 8.40935 35.4062 -3.6824 52.5057 13.4088C69.564 30.3214 57.5877 59.8151 33.1842 59.8151Z" fill="#4CAF50"/>
<path d="M48.1442 39.344L48.1195 39.5502C47.2917 39.1377 43.2602 37.166 42.5095 36.8937C40.8237 36.2695 41.2995 36.7947 38.0627 40.5017C37.5815 41.038 37.103 41.0792 36.2862 40.708C35.4612 40.2955 32.813 39.4292 29.678 36.6242C27.236 34.438 25.597 31.7567 25.113 30.9317C24.3072 29.5402 25.993 29.3422 27.5275 26.4382C27.8025 25.8607 27.6622 25.407 27.4587 24.9972C27.2524 24.5847 25.6107 20.5422 24.9232 18.9307C24.2632 17.3247 23.584 17.5282 23.0752 17.5282C21.4912 17.3907 20.3335 17.4127 19.3132 18.4742C14.8747 23.3527 15.994 28.3852 19.7917 33.7367C27.2552 43.5047 31.2317 45.3032 38.5027 47.8002C40.4662 48.4245 42.2565 48.3365 43.6727 48.133C45.2512 47.8827 48.532 46.1502 49.2167 44.2115C49.9179 42.2727 49.918 40.664 49.7117 40.2927C49.5082 39.9215 48.9692 39.7152 48.1442 39.344Z" fill="white"/>
</g>
<defs>
<clipPath id="clip0_29_170">
<rect width="66" height="66" fill="white"/>
</clipPath>
</defs>
</svg>
